<?xml version="1.0" encoding="UTF-8"?>
<svg xmlns="http://www.w3.org/2000/svg" width="160" height="120" viewBox="0 0 160 120" role="img" aria-label="Restaurant">
  <defs>
    <linearGradient id="g" x1="0" y1="0" x2="1" y2="1">
      <stop offset="0" stop-color="#ef4444"/>
      <stop offset="1" stop-color="#f59e0b"/>
    </linearGradient>
  </defs>
  <rect x="0" y="0" width="160" height="120" rx="12" fill="#0f172a"/>
  <rect x="6" y="6" width="148" height="108" rx="10" fill="#0b1220"/>
  <g transform="translate(20,22)">
    <rect x="0" y="38" width="120" height="38" rx="8" fill="#0f1b33" stroke="rgba(148,163,184,.2)"/>
    <rect x="10" y="46" width="18" height="22" rx="3" fill="#111c35"/>
    <rect x="36" y="46" width="18" height="22" rx="3" fill="#111c35"/>
    <rect x="62" y="46" width="18" height="22" rx="3" fill="#111c35"/>
    <rect x="88" y="46" width="18" height="22" rx="3" fill="#111c35"/>
    <rect x="18" y="8" width="84" height="22" rx="11" fill="url(#g)"/>
    <circle cx="60" cy="19" r="12" fill="#ffffff"/>
    <path d="M55 22h10v2a5 5 0 0 1-10 0z" fill="#0f172a"/>
  </g>
</svg>

